<svg version="1.1" id="Layer_1" xmlns="http://www.w3.org/2000/svg" xmlns:xlink="http://www.w3.org/1999/xlink" x="0px" y="0px"
	 width="100%" viewBox="0 0 304 233" enable-background="new 0 0 304 233" xml:space="preserve">
<!-- <path fill="#FFFEFE" opacity="1.000000" stroke="none" 
	d="
M218.000000,234.000000 
	C145.333344,234.000000 73.166687,234.000000 1.000019,234.000000 
	C1.000013,156.333359 1.000013,78.666702 1.000006,1.000040 
	C102.333305,1.000027 203.666611,1.000027 304.999939,1.000013 
	C304.999939,78.666626 304.999939,156.333252 304.999969,233.999939 
	C276.166656,234.000000 247.333328,234.000000 218.000000,234.000000 
M245.212357,113.653885 
	C248.906998,98.406715 246.018356,84.465889 236.027405,72.430290 
	C225.652603,59.932281 212.302032,55.410748 196.410278,59.852673 
	C186.756668,42.742897 173.025162,32.523720 153.048889,33.587700 
	C133.188889,34.645485 120.232002,46.448669 110.943451,63.135513 
	C97.886627,58.043476 85.926819,59.561771 75.510201,68.333946 
	C61.224213,80.364624 57.943607,96.220734 62.176220,113.617188 
	C68.953941,141.474304 95.384552,154.895920 117.659904,146.203049 
	C119.100975,145.640671 121.736572,146.714172 123.194450,147.835495 
	C142.462723,162.655411 165.548737,162.473145 184.140579,146.946976 
	C186.588852,144.902405 188.405807,144.784500 191.199127,145.932709 
	C200.557693,149.779709 210.108307,149.799576 219.359436,145.720444 
	C233.098572,139.662369 241.161163,128.721695 245.212357,113.653885 
M145.020615,179.714386 
	C142.479431,173.844467 137.686401,176.436340 133.520996,176.204025 
	C133.520996,183.366882 133.520996,190.072235 133.520996,196.992813 
	C136.086258,196.992813 138.257782,197.169937 140.389389,196.953568 
	C144.090500,196.577896 147.090088,193.066147 145.437531,190.026978 
	C143.543167,186.543106 144.639038,183.678040 145.020615,179.714386 
M99.238083,181.932037 
	C96.279884,181.610123 93.321686,181.288223 90.421875,180.972672 
	C90.421875,188.684952 90.421875,195.789810 90.421875,202.894684 
	C90.879204,202.974838 91.336533,203.055008 91.793861,203.135162 
	C92.288673,201.167664 92.783485,199.200180 93.279678,197.227188 
	C100.124908,196.833740 102.285965,194.400894 101.476723,187.618790 
	C101.267601,185.866211 100.412186,184.190750 99.238083,181.932037 
M204.651245,194.266129 
	C201.587723,191.721115 200.313995,182.103271 203.212646,179.998825 
	C204.461212,179.092331 207.189728,179.796066 209.066376,180.362762 
	C210.011337,180.648102 210.555161,182.261795 212.024658,184.314438 
	C212.875031,179.484055 211.331711,177.349030 208.450211,176.364410 
	C205.147537,175.235916 201.092148,175.882065 200.395813,179.176071 
	C199.386841,183.949081 199.405289,189.285721 200.491730,194.037552 
	C201.258713,197.392212 205.348770,197.746750 208.608673,196.520599 
	C211.414139,195.465378 213.061707,193.484451 212.071594,190.005493 
	C209.676300,191.647797 207.578156,193.086365 204.651245,194.266129 
M165.904556,196.917160 
	C168.409988,196.741257 170.915421,196.565369 173.257309,196.400955 
	C173.257309,192.541748 173.785004,188.651596 173.018204,185.035965 
	C172.673111,183.408813 169.865311,181.553055 167.947723,181.253006 
	C166.470627,181.021881 164.638687,183.058395 162.964539,184.086578 
	C163.205872,184.479523 163.447189,184.872467 163.688522,185.265411 
	C169.239410,183.165558 169.239410,183.165558 169.743515,185.414322 
	C167.208496,187.401138 164.449844,188.738785 163.134369,190.939240 
	C162.468552,192.052963 164.410416,194.725662 165.904556,196.917160 
M219.918579,181.076660 
	C218.555969,182.192017 217.193375,183.307373 215.039291,185.070587 
	C218.873123,185.922668 222.046494,180.042786 223.497787,186.541595 
	C219.532028,187.339569 214.864059,187.708481 215.875427,193.099213 
	C217.242050,200.383514 223.013474,194.788452 226.418060,196.801575 
	C226.418060,193.043243 226.415741,189.896576 226.418640,186.749893 
	C226.422150,182.931595 224.789032,180.743591 219.918579,181.076660 
M250.041733,183.663147 
	C247.388290,180.144165 244.238846,179.891769 241.168732,182.827454 
	C238.127502,185.735519 238.646164,193.985138 241.927078,195.971939 
	C244.984772,197.823563 247.887314,197.495651 251.475616,193.771561 
	C246.988174,193.905884 242.592743,196.387634 242.242493,189.833618 
	C245.304520,189.833618 248.034073,189.833618 251.187103,189.833618 
	C250.844788,187.630859 250.595108,186.024338 250.041733,183.663147 
M115.896194,181.093994 
	C111.411011,183.795242 109.514282,190.201370 112.482491,194.254807 
	C113.552925,195.716599 115.973305,196.644897 117.892143,196.879257 
	C119.300873,197.051315 120.896149,195.696030 122.408295,195.021423 
	C122.290703,194.562210 122.173111,194.103012 122.055527,193.643814 
	C118.726540,194.248230 114.779411,196.186249 114.165138,190.294922 
	C117.082626,190.122070 119.829926,189.959305 122.522308,189.799789 
	C123.161270,183.315231 122.166130,181.878937 115.896194,181.093994 
M152.124329,181.349945 
	C148.304337,184.477234 147.008453,190.288879 149.259354,194.198303 
	C151.414032,197.940567 156.583160,197.923447 159.143890,193.842560 
	C155.978851,193.883240 151.543060,196.442139 151.270004,189.814255 
	C154.314072,189.814255 157.037415,189.814255 159.731949,189.814255 
	C159.896301,182.793488 158.640518,181.300430 152.124329,181.349945 
M179.773178,188.682159 
	C180.676880,187.022034 181.580566,185.361908 182.484268,183.701782 
	C183.300491,185.419556 184.557022,187.070755 184.829102,188.870773 
	C185.231018,191.529633 184.932938,194.294327 184.932938,197.013947 
	C185.784866,197.006851 186.636810,196.999756 187.488739,196.992661 
	C187.803864,192.337006 189.218948,187.188965 186.542389,183.181061 
	C185.215363,181.193985 180.514984,181.459717 177.453674,180.733032 
	C177.453674,186.730164 177.453674,191.836075 177.453674,196.942001 
	C178.095856,196.974243 178.738037,197.006485 179.380234,197.038742 
	C179.511078,194.559616 179.641922,192.080505 179.773178,188.682159 
M58.072773,176.019913 
	C57.641689,178.000610 57.641689,178.000610 61.843750,179.356354 
	C63.312309,185.060059 60.870834,191.382034 63.148167,196.957855 
	C63.803288,196.885498 64.458405,196.813156 65.113525,196.740799 
	C65.113525,190.848846 65.113525,184.956879 65.113525,179.168427 
	C67.392754,178.607971 69.152199,178.175339 70.911644,177.742691 
	C70.881432,177.147995 70.851219,176.553284 70.821007,175.958588 
	C66.868233,175.958588 62.915459,175.958588 58.072773,176.019913 
M230.991989,194.174927 
	C231.428070,195.089340 231.864166,196.003754 232.300262,196.918167 
	C232.818176,196.054382 233.698257,195.224579 233.783112,194.320160 
	C233.999557,192.013687 233.631836,189.643600 233.934311,187.356705 
	C234.194260,185.391235 235.057343,183.505539 235.647781,181.603745 
	C235.320068,181.207840 233.921188,180.099930 234.109268,179.637375 
	C234.704514,178.173523 235.893158,176.950974 236.860275,175.624176 
	C233.460236,174.895615 228.605484,179.470291 229.243530,182.588196 
	C229.965454,186.115753 230.419403,189.698135 230.991989,194.174927 
M107.928856,185.509674 
	C107.926262,176.588165 107.926262,176.588165 105.659279,175.076279 
	C105.659279,182.451599 105.659279,189.699509 105.659279,196.947418 
	C106.299042,196.989746 106.938805,197.032059 107.578568,197.074387 
	C107.695557,193.545975 107.812538,190.017578 107.928856,185.509674 
M73.915253,186.589325 
	C73.915253,190.045715 73.915253,193.502106 73.915253,196.958481 
	C74.554596,197.025192 75.193947,197.091888 75.833290,197.158585 
	C78.665337,192.532730 73.465706,185.062653 80.483894,181.376114 
	C78.494255,181.279724 76.504623,181.183334 74.168823,181.070175 
	C74.078285,182.726013 73.998817,184.179413 73.915253,186.589325 
M83.003372,194.159378 
	C83.477631,195.161469 83.951897,196.163559 84.426163,197.165649 
	C84.742172,197.023804 85.058189,196.881973 85.374207,196.740128 
	C85.374207,191.534531 85.374207,186.328949 85.374207,181.123352 
	C84.695946,181.066345 84.017693,181.009338 83.339432,180.952332 
	C83.225372,185.045456 83.111305,189.138596 83.003372,194.159378 
z"/> -->
<path fill="#7F4922" opacity="1.000000" stroke="none" 
	d="
M245.135620,114.058228 
	C241.161163,128.721695 233.098572,139.662369 219.359436,145.720444 
	C210.108307,149.799576 200.557693,149.779709 191.199127,145.932709 
	C188.405807,144.784500 186.588852,144.902405 184.140579,146.946976 
	C165.548737,162.473145 142.462723,162.655411 123.194450,147.835495 
	C121.736572,146.714172 119.100975,145.640671 117.659904,146.203049 
	C95.384552,154.895920 68.953941,141.474304 62.176220,113.617188 
	C57.943607,96.220734 61.224213,80.364624 75.510201,68.333946 
	C85.926819,59.561771 97.886627,58.043476 110.943451,63.135513 
	C120.232002,46.448669 133.188889,34.645485 153.048889,33.587700 
	C173.025162,32.523720 186.756668,42.742897 196.410278,59.852673 
	C212.302032,55.410748 225.652603,59.932281 236.027405,72.430290 
	C246.018356,84.465889 248.906998,98.406715 245.135620,114.058228 
M110.929932,125.494362 
	C110.929932,125.494362 111.093201,125.949219 111.255501,126.602478 
	C120.900764,140.313766 138.949661,146.492401 150.151611,139.631622 
	C149.495819,137.855331 148.610214,136.058517 148.167938,134.158493 
	C145.733429,123.699982 142.443130,113.323143 141.267136,102.716423 
	C139.447281,86.302727 143.872971,70.816208 151.493286,56.222790 
	C153.175934,53.000381 154.861343,49.660748 155.743881,46.172291 
	C156.641846,42.622841 156.305435,38.983608 151.057022,38.939861 
	C151.057022,38.939861 151.067261,38.899487 150.983200,38.494019 
	C150.637772,38.554070 150.292343,38.614120 149.105087,38.760365 
	C140.403336,39.305996 133.086426,42.905060 127.677452,49.620621 
	C124.087692,54.077515 121.325844,59.201241 117.526756,64.122299 
	C115.678925,68.372910 113.831093,72.623528 111.299004,77.156708 
	C109.581299,86.327263 106.792221,95.464119 106.502388,104.679581 
	C106.290260,111.424538 109.362206,118.272781 110.979156,125.003876 
	C110.979156,125.003876 110.907921,125.011597 110.929932,125.494362 
M65.976776,110.762917 
	C67.405426,114.590492 68.772217,118.442535 70.275093,122.240738 
	C73.812004,131.179474 85.579208,138.151031 95.006241,136.959793 
	C101.136261,136.185181 103.964951,132.584213 102.750046,126.643524 
	C101.856453,122.274010 100.757301,117.923515 99.401428,113.675728 
	C94.738976,99.068840 89.923401,84.510826 85.192314,69.208588 
	C84.339317,64.970482 82.092384,67.973488 80.972809,68.681610 
	C69.647751,75.844650 64.562263,86.605263 64.128624,99.640198 
	C64.014771,103.062393 65.291435,106.530846 65.976776,110.762917 
M147.191467,85.710571 
	C145.201950,102.849640 148.714340,119.121086 154.747437,135.052200 
	C155.875854,138.031937 157.304184,138.912109 159.833374,137.100510 
	C164.412216,133.820770 169.809479,131.104828 173.190872,126.829414 
	C190.509811,104.931450 193.261505,80.287979 184.414673,54.360870 
	C181.620346,46.171642 175.061020,40.658852 166.070786,39.049198 
	C164.229187,38.719467 161.806427,38.098289 161.871674,41.470409 
	C161.930588,44.517029 161.928421,47.564835 161.223877,50.807148 
	C155.409485,61.696465 149.280594,72.460487 147.191467,85.710571 
M217.960983,67.735550 
	C215.307220,77.123741 212.408508,86.451393 210.068665,95.917183 
	C207.732590,105.367653 205.498215,114.890198 204.106308,124.509506 
	C203.272415,130.272430 205.850662,132.192963 211.804718,132.032806 
	C213.600525,131.984497 215.446945,131.680908 217.163406,131.149414 
	C234.212234,125.870300 244.068924,107.252800 239.545105,88.855606 
	C237.004395,78.523094 231.480255,70.370674 221.807709,65.419846 
	C220.089371,64.540321 217.914230,63.027397 217.960983,67.735550 
M96.508583,91.937805 
	C97.794983,94.771248 99.081390,97.604683 100.817924,101.429573 
	C101.303741,98.557663 101.564522,96.771751 101.912369,95.002960 
	C103.252815,88.186905 104.206795,81.259811 106.081863,74.592636 
	C108.532539,65.878777 107.561043,64.197060 98.174332,63.862682 
	C97.176994,63.827156 96.177040,63.872261 95.178772,63.854183 
	C91.111786,63.780518 89.678535,66.211952 90.482841,69.674316 
	C92.165092,76.916031 94.249939,84.064217 96.508583,91.937805 
M210.055359,62.019665 
	C206.187439,62.277538 202.319519,62.535412 198.611893,62.782597 
	C201.061523,72.526573 203.284088,81.367355 205.890442,91.734756 
	C208.846527,83.132896 211.514999,75.849800 213.801544,68.448700 
	C214.585114,65.912460 214.605347,62.990437 210.055359,62.019665 
z"/>
<path fill="#B98659" opacity="1.000000" stroke="none" 
	d="
M145.070892,180.110031 
	C144.639038,183.678040 143.543167,186.543106 145.437531,190.026978 
	C147.090088,193.066147 144.090500,196.577896 140.389389,196.953568 
	C138.257782,197.169937 136.086258,196.992813 133.520996,196.992813 
	C133.520996,190.072235 133.520996,183.366882 133.520996,176.204025 
	C137.686401,176.436340 142.479431,173.844467 145.070892,180.110031 
M136.008575,191.384338 
	C135.711731,193.842850 136.605713,195.627350 139.212585,194.620941 
	C140.707230,194.043930 142.610062,192.132019 142.623108,190.804321 
	C142.635345,189.558380 140.612274,187.684311 139.111633,187.165039 
	C136.428970,186.236725 135.708054,188.142914 136.008575,191.384338 
M138.363174,178.200500 
	C137.335342,180.067871 136.307526,181.935226 135.279709,183.802597 
	C135.876022,184.355011 136.472336,184.907440 137.068665,185.459854 
	C138.763168,184.449524 140.457687,183.439194 142.152191,182.428864 
	C141.164658,181.039932 140.177109,179.651016 138.363174,178.200500 
z"/>
<path fill="#BB885B" opacity="1.000000" stroke="none" 
	d="
M99.545868,182.205948 
	C100.412186,184.190750 101.267601,185.866211 101.476723,187.618790 
	C102.285965,194.400894 100.124908,196.833740 93.279678,197.227188 
	C92.783485,199.200180 92.288673,201.167664 91.793861,203.135162 
	C91.336533,203.055008 90.879204,202.974838 90.421875,202.894684 
	C90.421875,195.789810 90.421875,188.684952 90.421875,180.972672 
	C93.321686,181.288223 96.279884,181.610123 99.545868,182.205948 
M93.763542,194.135529 
	C95.364822,193.349640 98.252922,192.662323 98.322128,191.759048 
	C98.516937,189.216309 97.552238,186.584763 97.044678,183.988220 
	C95.614044,184.735214 93.180824,185.259796 92.955788,186.274216 
	C92.444168,188.580566 93.017494,191.127609 93.763542,194.135529 
z"/>
<path fill="#BC8A5F" opacity="1.000000" stroke="none" 
	d="
M205.065628,194.395523 
	C207.578156,193.086365 209.676300,191.647797 212.071594,190.005493 
	C213.061707,193.484451 211.414139,195.465378 208.608673,196.520599 
	C205.348770,197.746750 201.258713,197.392212 200.491730,194.037552 
	C199.405289,189.285721 199.386841,183.949081 200.395813,179.176071 
	C201.092148,175.882065 205.147537,175.235916 208.450211,176.364410 
	C211.331711,177.349030 212.875031,179.484055 212.024658,184.314438 
	C210.555161,182.261795 210.011337,180.648102 209.066376,180.362762 
	C207.189728,179.796066 204.461212,179.092331 203.212646,179.998825 
	C200.313995,182.103271 201.587723,191.721115 205.065628,194.395523 
z"/>
<path fill="#B9875B" opacity="1.000000" stroke="none" 
	d="
M165.538940,196.805328 
	C164.410416,194.725662 162.468552,192.052963 163.134369,190.939240 
	C164.449844,188.738785 167.208496,187.401138 169.743515,185.414322 
	C169.239410,183.165558 169.239410,183.165558 163.688522,185.265411 
	C163.447189,184.872467 163.205872,184.479523 162.964539,184.086578 
	C164.638687,183.058395 166.470627,181.021881 167.947723,181.253006 
	C169.865311,181.553055 172.673111,183.408813 173.018204,185.035965 
	C173.785004,188.651596 173.257309,192.541748 173.257309,196.400955 
	C170.915421,196.565369 168.409988,196.741257 165.538940,196.805328 
M169.035049,194.240875 
	C169.736023,192.729782 170.436996,191.218704 171.137970,189.707626 
	C170.587219,189.280258 170.036469,188.852905 169.485703,188.425552 
	C168.099915,189.496338 166.714111,190.567123 165.328308,191.637894 
	C166.347916,192.602783 167.367508,193.567688 169.035049,194.240875 
z"/>
<path fill="#BA8659" opacity="1.000000" stroke="none" 
	d="
M220.309143,181.035217 
	C224.789032,180.743591 226.422150,182.931595 226.418640,186.749893 
	C226.415741,189.896576 226.418060,193.043243 226.418060,196.801575 
	C223.013474,194.788452 217.242050,200.383514 215.875427,193.099213 
	C214.864059,187.708481 219.532028,187.339569 223.497787,186.541595 
	C222.046494,180.042786 218.873123,185.922668 215.039291,185.070587 
	C217.193375,183.307373 218.555969,182.192017 220.309143,181.035217 
M223.180969,193.347565 
	C223.397552,192.020157 223.614136,190.692749 223.830734,189.365341 
	C223.272980,189.025177 222.715240,188.685013 222.157501,188.344849 
	C220.893768,189.759598 219.630035,191.174332 218.366318,192.589066 
	C219.803711,193.014313 221.241089,193.439545 223.180969,193.347565 
z"/>
<path fill="#B88559" opacity="1.000000" stroke="none" 
	d="
M250.193588,184.040466 
	C250.595108,186.024338 250.844788,187.630859 251.187103,189.833618 
	C248.034073,189.833618 245.304520,189.833618 242.242493,189.833618 
	C242.592743,196.387634 246.988174,193.905884 251.475616,193.771561 
	C247.887314,197.495651 244.984772,197.823563 241.927078,195.971939 
	C238.646164,193.985138 238.127502,185.735519 241.168732,182.827454 
	C244.238846,179.891769 247.388290,180.144165 250.193588,184.040466 
M247.076767,187.783844 
	C246.660751,186.287781 246.244720,184.791718 245.828720,183.295654 
	C244.425354,184.340363 243.022003,185.385086 241.618652,186.429794 
	C241.874527,186.845901 242.130402,187.262009 242.386276,187.678101 
	C243.683304,187.745850 244.980316,187.813599 247.076767,187.783844 
z"/>
<path fill="#B88659" opacity="1.000000" stroke="none" 
	d="
M116.288010,181.050873 
	C122.166130,181.878937 123.161270,183.315231 122.522308,189.799789 
	C119.829926,189.959305 117.082626,190.122070 114.165138,190.294922 
	C114.779411,196.186249 118.726540,194.248230 122.055527,193.643814 
	C122.173111,194.103012 122.290703,194.562210 122.408295,195.021423 
	C120.896149,195.696030 119.300873,197.051315 117.892143,196.879257 
	C115.973305,196.644897 113.552925,195.716599 112.482491,194.254807 
	C109.514282,190.201370 111.411011,183.795242 116.288010,181.050873 
M114.237091,185.931671 
	C115.870438,186.799118 117.503784,187.666565 119.137131,188.534012 
	C119.533821,188.032303 119.930504,187.530594 120.327194,187.028870 
	C119.600311,185.810638 119.120384,184.010864 118.066261,183.563232 
	C117.263069,183.222137 115.731377,184.596527 114.237091,185.931671 
z"/>
<path fill="#B98659" opacity="1.000000" stroke="none" 
	d="
M152.500610,181.229202 
	C158.640518,181.300430 159.896301,182.793488 159.731949,189.814255 
	C157.037415,189.814255 154.314072,189.814255 151.270004,189.814255 
	C151.543060,196.442139 155.978851,193.883240 159.143890,193.842560 
	C156.583160,197.923447 151.414032,197.940567 149.259354,194.198303 
	C147.008453,190.288879 148.304337,184.477234 152.500610,181.229202 
M155.921646,183.837265 
	C151.950867,182.143173 151.570923,184.581406 151.266205,188.318253 
	C153.481598,186.818069 158.286179,190.617905 155.921646,183.837265 
z"/>
<path fill="#BD8B5F" opacity="1.000000" stroke="none" 
	d="
M179.772980,189.141785 
	C179.641922,192.080505 179.511078,194.559616 179.380234,197.038742 
	C178.738037,197.006485 178.095856,196.974243 177.453674,196.942001 
	C177.453674,191.836075 177.453674,186.730164 177.453674,180.733032 
	C180.514984,181.459717 185.215363,181.193985 186.542389,183.181061 
	C189.218948,187.188965 187.803864,192.337006 187.488739,196.992661 
	C186.636810,196.999756 185.784866,197.006851 184.932938,197.013947 
	C184.932938,194.294327 185.231018,191.529633 184.829102,188.870773 
	C184.557022,187.070755 183.300491,185.419556 182.484268,183.701782 
	C181.580566,185.361908 180.676880,187.022034 179.772980,189.141785 
z"/>
<path fill="#BB885B" opacity="1.000000" stroke="none" 
	d="
M58.517727,175.989258 
	C62.915459,175.958588 66.868233,175.958588 70.821007,175.958588 
	C70.851219,176.553284 70.881432,177.147995 70.911644,177.742691 
	C69.152199,178.175339 67.392754,178.607971 65.113525,179.168427 
	C65.113525,184.956879 65.113525,190.848846 65.113525,196.740799 
	C64.458405,196.813156 63.803288,196.885498 63.148167,196.957855 
	C60.870834,191.382034 63.312309,185.060059 61.843735,179.356354 
	C57.641689,178.000610 57.641689,178.000610 58.517727,175.989258 
z"/>
<path fill="#BB875A" opacity="1.000000" stroke="none" 
	d="
M230.990936,193.715805 
	C230.419403,189.698135 229.965454,186.115753 229.243530,182.588196 
	C228.605484,179.470291 233.460236,174.895615 236.860275,175.624176 
	C235.893158,176.950974 234.704514,178.173523 234.109268,179.637375 
	C233.921188,180.099930 235.320068,181.207840 235.647781,181.603745 
	C235.057343,183.505539 234.194260,185.391235 233.934311,187.356705 
	C233.631836,189.643600 233.999557,192.013687 233.783112,194.320160 
	C233.698257,195.224579 232.818176,196.054382 232.300262,196.918167 
	C231.864166,196.003754 231.428070,195.089340 230.990936,193.715805 
z"/>
<path fill="#BD8C60" opacity="1.000000" stroke="none" 
	d="
M107.929184,185.999420 
	C107.812538,190.017578 107.695557,193.545975 107.578568,197.074387 
	C106.938805,197.032059 106.299042,196.989746 105.659279,196.947418 
	C105.659279,189.699509 105.659279,182.451599 105.659279,175.076279 
	C107.926262,176.588165 107.926262,176.588165 107.929184,185.999420 
z"/>
<path fill="#BC8B5D" opacity="1.000000" stroke="none" 
	d="
M73.917297,186.111069 
	C73.998817,184.179413 74.078285,182.726013 74.168823,181.070175 
	C76.504623,181.183334 78.494255,181.279724 80.483894,181.376114 
	C73.465706,185.062653 78.665337,192.532730 75.833290,197.158585 
	C75.193947,197.091888 74.554596,197.025192 73.915253,196.958481 
	C73.915253,193.502106 73.915253,190.045715 73.917297,186.111069 
z"/>
<path fill="#BD8C60" opacity="1.000000" stroke="none" 
	d="
M83.000305,193.695557 
	C83.111305,189.138596 83.225372,185.045456 83.339432,180.952332 
	C84.017693,181.009338 84.695946,181.066345 85.374207,181.123352 
	C85.374207,186.328949 85.374207,191.534531 85.374207,196.740128 
	C85.058189,196.881973 84.742172,197.023804 84.426163,197.165649 
	C83.951897,196.163559 83.477631,195.161469 83.000305,193.695557 
z"/>
<path fill="#DD9D5F" opacity="1.000000" stroke="none" 
	d="
M161.953201,50.612122 
	C161.928421,47.564835 161.930588,44.517029 161.871674,41.470409 
	C161.806427,38.098289 164.229187,38.719467 166.070786,39.049198 
	C175.061020,40.658852 181.620346,46.171642 184.414673,54.360870 
	C193.261505,80.287979 190.509811,104.931450 173.190872,126.829414 
	C169.809479,131.104828 164.412216,133.820770 159.833374,137.100510 
	C157.304184,138.912109 155.875854,138.031937 154.747437,135.052200 
	C148.714340,119.121086 145.201950,102.849640 147.743362,85.170372 
	C152.236511,75.325615 156.213440,66.035881 160.090027,56.704456 
	C160.900925,54.752544 161.341797,52.646915 161.953201,50.612122 
z"/>
<path fill="#DD9E60" opacity="1.000000" stroke="none" 
	d="
M151.099487,38.929375 
	C156.305435,38.983608 156.641846,42.622841 155.743881,46.172291 
	C154.861343,49.660748 153.175934,53.000381 151.493286,56.222790 
	C143.872971,70.816208 139.447281,86.302727 141.267136,102.716423 
	C142.443130,113.323143 145.733429,123.699982 148.167938,134.158493 
	C148.610214,136.058517 149.495819,137.855331 150.151611,139.631622 
	C138.949661,146.492401 120.900764,140.313766 111.349686,126.182899 
	C111.265228,125.512741 111.086578,125.262169 110.907921,125.011597 
	C110.907921,125.011597 110.979156,125.003876 110.992905,124.601166 
	C110.944077,122.871323 111.106247,121.486633 110.783386,120.226181 
	C108.180870,110.065941 108.461655,99.848541 110.006363,89.594246 
	C110.645531,85.351227 111.323143,81.113998 111.983269,76.874138 
	C113.831093,72.623528 115.678925,68.372910 117.864082,64.480850 
	C117.580170,68.029800 116.958923,71.220184 116.337685,74.410576 
	C117.876198,73.952065 118.324181,73.274300 118.697495,72.557632 
	C125.786980,58.947586 135.060349,47.502659 149.554382,41.142876 
	C150.257751,40.834255 150.592880,39.686417 151.099487,38.929375 
z"/>
<path fill="#DC9D5F" opacity="1.000000" stroke="none" 
	d="
M217.966583,67.328888 
	C217.914230,63.027397 220.089371,64.540321 221.807709,65.419846 
	C231.480255,70.370674 237.004395,78.523094 239.545105,88.855606 
	C244.068924,107.252800 234.212234,125.870300 217.163406,131.149414 
	C215.446945,131.680908 213.600525,131.984497 211.804718,132.032806 
	C205.850662,132.192963 203.272415,130.272430 204.106308,124.509506 
	C205.498215,114.890198 207.732590,105.367653 210.068665,95.917183 
	C212.408508,86.451393 215.307220,77.123741 217.966583,67.328888 
z"/>
<path fill="#DD9D60" opacity="1.000000" stroke="none" 
	d="
M85.166176,69.934189 
	C89.923401,84.510826 94.738976,99.068840 99.401428,113.675728 
	C100.757301,117.923515 101.856453,122.274010 102.750046,126.643524 
	C103.964951,132.584213 101.136261,136.185181 95.006241,136.959793 
	C85.579208,138.151031 73.812004,131.179474 70.275093,122.240738 
	C68.772217,118.442535 67.405426,114.590492 65.990891,109.910736 
	C66.037636,107.573677 66.126549,106.087563 66.094208,104.604095 
	C65.761971,89.362740 72.740036,78.152206 85.166176,69.934189 
z"/>
<path fill="#DA9B5E" opacity="1.000000" stroke="none" 
	d="
M96.339005,91.594315 
	C94.249939,84.064217 92.165092,76.916031 90.482841,69.674316 
	C89.678535,66.211952 91.111786,63.780518 95.178772,63.854183 
	C96.177040,63.872261 97.176994,63.827156 98.174332,63.862682 
	C107.561043,64.197060 108.532539,65.878777 106.081863,74.592636 
	C104.206795,81.259811 103.252815,88.186905 101.912369,95.002960 
	C101.564522,96.771751 101.303741,98.557663 100.817924,101.429573 
	C99.081390,97.604683 97.794983,94.771248 96.339005,91.594315 
z"/>
<path fill="#DA9B5E" opacity="1.000000" stroke="none" 
	d="
M210.487640,62.081234 
	C214.605347,62.990437 214.585114,65.912460 213.801544,68.448700 
	C211.514999,75.849800 208.846527,83.132896 205.890442,91.734756 
	C203.284088,81.367355 201.061523,72.526573 198.611893,62.782597 
	C202.319519,62.535412 206.187439,62.277538 210.487640,62.081234 
z"/>
<path fill="#FAF7F1" opacity="1.000000" stroke="none" 
	d="
M151.078247,38.934616 
	C150.592880,39.686417 150.257751,40.834255 149.554382,41.142876 
	C135.060349,47.502659 125.786980,58.947586 118.697495,72.557632 
	C118.324181,73.274300 117.876198,73.952065 116.337685,74.410576 
	C116.958923,71.220184 117.580170,68.029800 118.197403,64.432938 
	C121.325844,59.201241 124.087692,54.077515 127.677452,49.620621 
	C133.086426,42.905060 140.403336,39.305996 149.791687,38.843212 
	C150.674622,38.917202 150.870941,38.908344 151.067261,38.899487 
	C151.067261,38.899487 151.057022,38.939861 151.078247,38.934616 
z"/>
<path fill="#F5F1E8" opacity="1.000000" stroke="none" 
	d="
M85.179245,69.571388 
	C72.740036,78.152206 65.761971,89.362740 66.094208,104.604095 
	C66.126549,106.087563 66.037636,107.573677 65.967270,109.518311 
	C65.291435,106.530846 64.014771,103.062393 64.128624,99.640198 
	C64.562263,86.605263 69.647751,75.844650 80.972809,68.681610 
	C82.092384,67.973488 84.339317,64.970482 85.179245,69.571388 
z"/>
<path fill="#EFCF98" opacity="1.000000" stroke="none" 
	d="
M111.641136,77.015427 
	C111.323143,81.113998 110.645531,85.351227 110.006363,89.594246 
	C108.461655,99.848541 108.180870,110.065941 110.783386,120.226181 
	C111.106247,121.486633 110.944077,122.871323 110.988510,124.636719 
	C109.362206,118.272781 106.290260,111.424538 106.502388,104.679581 
	C106.792221,95.464119 109.581299,86.327263 111.641136,77.015427 
z"/>
<path fill="#EBC58F" opacity="1.000000" stroke="none" 
	d="
M161.588531,50.709633 
	C161.341797,52.646915 160.900925,54.752544 160.090027,56.704456 
	C156.213440,66.035881 152.236511,75.325615 147.949051,84.813980 
	C149.280594,72.460487 155.409485,61.696465 161.588531,50.709633 
z"/>
<path fill="#EFCF98" opacity="1.000000" stroke="none" 
	d="
M110.918930,125.252975 
	C111.086578,125.262169 111.265228,125.512741 111.268539,125.856270 
	C111.093201,125.949219 110.929932,125.494362 110.918930,125.252975 
z"/>
<path fill="#DD9E60" opacity="1.000000" stroke="none" 
	d="
M151.025238,38.696754 
	C150.870941,38.908344 150.674622,38.917202 150.212616,38.800117 
	C150.292343,38.614120 150.637772,38.554070 151.025238,38.696754 
z"/>
<path fill="#FAF7F2" opacity="1.000000" stroke="none" 
	d="
M136.007538,190.954193 
	C135.708054,188.142914 136.428970,186.236725 139.111633,187.165039 
	C140.612274,187.684311 142.635345,189.558380 142.623108,190.804321 
	C142.610062,192.132019 140.707230,194.043930 139.212585,194.620941 
	C136.605713,195.627350 135.711731,193.842850 136.007538,190.954193 
z"/>
<path fill="#F8F3ED" opacity="1.000000" stroke="none" 
	d="
M138.776367,178.231293 
	C140.177109,179.651016 141.164658,181.039932 142.152191,182.428864 
	C140.457687,183.439194 138.763168,184.449524 137.068665,185.459854 
	C136.472336,184.907440 135.876022,184.355011 135.279709,183.802597 
	C136.307526,181.935226 137.335342,180.067871 138.776367,178.231293 
z"/>
<path fill="#FAF6F2" opacity="1.000000" stroke="none" 
	d="
M93.456696,193.856171 
	C93.017494,191.127609 92.444168,188.580566 92.955788,186.274216 
	C93.180824,185.259796 95.614044,184.735214 97.044678,183.988220 
	C97.552238,186.584763 98.516937,189.216309 98.322128,191.759048 
	C98.252922,192.662323 95.364822,193.349640 93.456696,193.856171 
z"/>
<path fill="#F5EEE6" opacity="1.000000" stroke="none" 
	d="
M168.711090,194.386719 
	C167.367508,193.567688 166.347916,192.602783 165.328308,191.637894 
	C166.714111,190.567123 168.099915,189.496338 169.485703,188.425552 
	C170.036469,188.852905 170.587219,189.280258 171.137970,189.707626 
	C170.436996,191.218704 169.736023,192.729782 168.711090,194.386719 
z"/>
<path fill="#F3ECE4" opacity="1.000000" stroke="none" 
	d="
M222.929718,193.606171 
	C221.241089,193.439545 219.803711,193.014313 218.366318,192.589066 
	C219.630035,191.174332 220.893768,189.759598 222.157501,188.344849 
	C222.715240,188.685013 223.272980,189.025177 223.830734,189.365341 
	C223.614136,190.692749 223.397552,192.020157 222.929718,193.606171 
z"/>
<path fill="#F6EDE4" opacity="1.000000" stroke="none" 
	d="
M246.677063,187.832596 
	C244.980316,187.813599 243.683304,187.745850 242.386276,187.678101 
	C242.130402,187.262009 241.874527,186.845901 241.618652,186.429794 
	C243.022003,185.385086 244.425354,184.340363 245.828705,183.295654 
	C246.244720,184.791718 246.660751,186.287781 246.677063,187.832596 
z"/>
<path fill="#F6EDE4" opacity="1.000000" stroke="none" 
	d="
M114.380440,185.569702 
	C115.731377,184.596527 117.263069,183.222137 118.066261,183.563232 
	C119.120384,184.010864 119.600311,185.810638 120.327194,187.028870 
	C119.930504,187.530594 119.533821,188.032303 119.137131,188.534012 
	C117.503784,187.666565 115.870438,186.799118 114.380440,185.569702 
z"/>
<path fill="#F5EDE5" opacity="1.000000" stroke="none" 
	d="
M156.208282,184.103088 
	C158.286179,190.617905 153.481598,186.818069 151.266205,188.318253 
	C151.570923,184.581406 151.950867,182.143173 156.208282,184.103088 
z"/>
</svg>