<svg xmlns="http://www.w3.org/2000/svg" width="300" height="300" viewBox="0 0 300 300">
  <defs>
    <linearGradient id="g1" x1="0" y1="0" x2="1" y2="1">
      <stop offset="0" stop-color="#9be15d"/>
      <stop offset="1" stop-color="#00e3ae"/>
    </linearGradient>
    <filter id="shadow" x="-50%" y="-50%" width="200%" height="200%">
      <feDropShadow dx="0" dy="12" stdDeviation="12" flood-color="rgba(0,0,0,.35)"/>
    </filter>
  </defs>
  <rect width="300" height="300" rx="24" fill="#0f131a"/>
  <g filter="url(#shadow)" transform="translate(30,40)">
    <rect x="0" y="120" width="200" height="90" rx="18" fill="url(#g1)"/>
    <rect x="0" y="70" width="200" height="60" rx="14" fill="#ffffff" opacity=".95"/>
    <rect x="165" y="90" width="40" height="30" rx="10" fill="#ffffff" opacity=".95"/>
    <circle cx="100" cy="120" r="70" fill="#2b2f3a"/>
    <ellipse cx="100" cy="120" rx="68" ry="26" fill="#1a1f28"/>
    <ellipse cx="100" cy="116" rx="54" ry="18" fill="#2f353f"/>
    <path d="M80 30c-6 14 10 20 0 32 M110 24c-6 16 10 22 0 34 M140 28c-6 16 10 22 0 34"
          stroke="#9be15d" stroke-width="4" stroke-linecap="round" fill="none" opacity=".9"/>
  </g>
</svg>
