<?xml version="1.0" encoding="UTF-8"?>
<svg xmlns="http://www.w3.org/2000/svg" 
 width="320" height="250" viewBox="0 0 320 250"
 preserveAspectRatio="xMidYMid meet">

<!-- Main coffee bean shape -->
<path transform="translate(-70, -20) scale(1.5)" fill="#7F4922" opacity="1.000000" stroke="none" 
	d="
M245.135620,114.058228 
	C241.161163,128.721695 233.098572,139.662369 219.359436,145.720444 
	C210.108307,149.799576 200.557693,149.779709 191.199127,145.932709 
	C188.405807,144.784500 186.588852,144.902405 184.140579,146.946976 
	C165.548737,162.473145 142.462723,162.655411 123.194450,147.835495 
	C121.736572,146.714172 119.100975,145.640671 117.659904,146.203049 
	C95.384552,154.895920 68.953941,141.474304 62.176220,113.617188 
	C57.943607,96.220734 61.224213,80.364624 75.510201,68.333946 
	C85.926819,59.561771 97.886627,58.043476 110.943451,63.135513 
	C120.232002,46.448669 133.188889,34.645485 153.048889,33.587700 
	C173.025162,32.523720 186.756668,42.742897 196.410278,59.852673 
	C212.302032,55.410748 225.652603,59.932281 236.027405,72.430290 
	C246.018356,84.465889 248.906998,98.406715 245.135620,114.058228 
M110.929932,125.494362 
	C110.929932,125.494362 111.093201,125.949219 111.255501,126.602478 
	C120.900764,140.313766 138.949661,146.492401 150.151611,139.631622 
	C149.495819,137.855331 148.610214,136.058517 148.167938,134.158493 
	C145.733429,123.699982 142.443130,113.323143 141.267136,102.716423 
	C139.447281,86.302727 143.872971,70.816208 151.493286,56.222790 
	C153.175934,53.000381 154.861343,49.660748 155.743881,46.172291 
	C156.641846,42.622841 156.305435,38.983608 151.057022,38.939861 
	C151.057022,38.939861 151.067261,38.899487 150.983200,38.494019 
	C150.637772,38.554070 150.292343,38.614120 149.105087,38.760365 
	C140.403336,39.305996 133.086426,42.905060 127.677452,49.620621 
	C124.087692,54.077515 121.325844,59.201241 117.526756,64.122299 
	C115.678925,68.372910 113.831093,72.623528 111.299004,77.156708 
	C109.581299,86.327263 106.792221,95.464119 106.502388,104.679581 
	C106.290260,111.424538 109.362206,118.272781 110.979156,125.003876 
	C110.979156,125.003876 110.907921,125.011597 110.929932,125.494362 
M65.976776,110.762917 
	C67.405426,114.590492 68.772217,118.442535 70.275093,122.240738 
	C73.812004,131.179474 85.579208,138.151031 95.006241,136.959793 
	C101.136261,136.185181 103.964951,132.584213 102.750046,126.643524 
	C101.856453,122.274010 100.757301,117.923515 99.401428,113.675728 
	C94.738976,99.068840 89.923401,84.510826 85.192314,69.208588 
	C84.339317,64.970482 82.092384,67.973488 80.972809,68.681610 
	C69.647751,75.844650 64.562263,86.605263 64.128624,99.640198 
	C64.014771,103.062393 65.291435,106.530846 65.976776,110.762917 
M147.191467,85.710571 
	C145.201950,102.849640 148.714340,119.121086 154.747437,135.052200 
	C155.875854,138.031937 157.304184,138.912109 159.833374,137.100510 
	C164.412216,133.820770 169.809479,131.104828 173.190872,126.829414 
	C190.509811,104.931450 193.261505,80.287979 184.414673,54.360870 
	C181.620346,46.171642 175.061020,40.658852 166.070786,39.049198 
	C164.229187,38.719467 161.806427,38.098289 161.871674,41.470409 
	C161.930588,44.517029 161.928421,47.564835 161.223877,50.807148 
	C155.409485,61.696465 149.280594,72.460487 147.191467,85.710571 
M217.960983,67.735550 
	C215.307220,77.123741 212.408508,86.451393 210.068665,95.917183 
	C207.732590,105.367653 205.498215,114.890198 204.106308,124.509506 
	C203.272415,130.272430 205.850662,132.192963 211.804718,132.032806 
	C213.600525,131.984497 215.446945,131.680908 217.163406,131.149414 
	C234.212234,125.870300 244.068924,107.252800 239.545105,88.855606 
	C237.004395,78.523094 231.480255,70.370674 221.807709,65.419846 
	C220.089371,64.540321 217.914230,63.027397 217.960983,67.735550 
M96.508583,91.937805 
	C97.794983,94.771248 99.081390,97.604683 100.817924,101.429573 
	C101.303741,98.557663 101.564522,96.771751 101.912369,95.002960 
	C103.252815,88.186905 104.206795,81.259811 106.081863,74.592636 
	C108.532539,65.878777 107.561043,64.197060 98.174332,63.862682 
	C97.176994,63.827156 96.177040,63.872261 95.178772,63.854183 
	C91.111786,63.780518 89.678535,66.211952 90.482841,69.674316 
	C92.165092,76.916031 94.249939,84.064217 96.508583,91.937805 
M210.055359,62.019665 
	C206.187439,62.277538 202.319519,62.535412 198.611893,62.782597 
	C201.061523,72.526573 203.284088,81.367355 205.890442,91.734756 
	C208.846527,83.132896 211.514999,75.849800 213.801544,68.448700 
	C214.585114,65.912460 214.605347,62.990437 210.055359,62.019665 
z"/>

<!-- Coffee bean accent details - moved up 20px to match main shape -->
<path transform="translate(-70, -20) scale(1.5)" fill="#DD9D5F" opacity="0.95" stroke="none" style="filter: blur(0.2px);"
	d="M162,51 C162,48 162,45 162,41 C162,38 164,39 166,39 C175,41 182,46 184,54 C193,80 191,105 173,127 
	C170,131 164,134 160,137 C157,139 156,138 155,135 C149,119 145,103 148,85 C152,75 156,66 160,57 
	C161,55 161,53 162,51 Z"/>

<path transform="translate(-70, -20) scale(1.5)" fill="#DD9E60" opacity="0.92" stroke="none" style="filter: blur(0.2px);"
	d="M151,39 C156,39 157,43 156,46 C155,50 153,53 151,56 C144,71 139,86 141,103 C142,113 146,124 148,134 
	C149,136 149,138 150,140 C139,146 121,140 111,126 C111,123 111,121 111,120 C108,110 108,100 110,90 
	C111,85 111,81 112,77 C114,73 116,68 118,64 C118,68 117,71 116,74 C118,74 118,73 119,73 
	C126,59 135,48 150,41 C150,41 151,40 151,39 Z"/>

<path transform="translate(-70, -20) scale(1.5)" fill="#DC9D5F" opacity="0.9" stroke="none" style="filter: blur(0.2px);"
	d="M218,67 C218,63 220,65 222,65 C231,70 237,79 240,89 C244,107 234,126 217,131 
	C215,132 214,132 212,132 C206,132 203,130 204,125 C205,115 208,105 210,96 
	C212,86 215,77 218,67 Z"/>

<path transform="translate(-70, -20) scale(1.5)" fill="#DD9D60" opacity="0.88" stroke="none" style="filter: blur(0.2px);"
	d="M85,70 C90,85 95,99 99,114 C101,118 102,122 103,127 C104,133 101,136 95,137 
	C86,138 74,131 70,122 C69,118 67,115 66,110 C66,108 66,106 66,105 
	C66,89 73,78 85,70 Z"/>

<!-- Additional accent paths -->
<path transform="translate(-70, -20) scale(1.5)" fill="#DA9B5E" opacity="0.85" stroke="none" style="filter: blur(0.15px);"
	d="M96,92 C94,84 92,77 90,70 C90,66 91,64 95,64 C96,64 97,64 98,64 C108,64 109,66 106,75 
	C104,81 103,88 102,95 C102,97 101,99 101,101 C99,98 98,95 96,92 Z"/>
	
<path transform="translate(-70, -20) scale(1.5)" fill="#DA9B5E" opacity="0.85" stroke="none" style="filter: blur(0.15px);"
	d="M210,62 C215,63 215,66 214,68 C212,76 209,83 206,92 C203,81 201,73 199,63 
	C202,63 206,62 210,62 Z"/>

<!-- Highlight accents -->	
<path transform="translate(-70, -20) scale(1.5)" fill="#FAF7F1" opacity="0.8" stroke="none" style="filter: blur(0.1px);"
	d="M151,39 C151,40 150,41 150,41 C135,48 126,59 119,73 C118,73 118,74 116,74 
	C117,71 118,68 118,64 C121,59 124,54 128,50 C133,43 140,39 150,39 
	C151,39 151,39 151,39 Z"/>

<path transform="translate(-70, -20) scale(1.5)" fill="#F5F1E8" opacity="0.75" stroke="none" style="filter: blur(0.1px);"
	d="M85,70 C73,78 66,89 66,105 C66,106 66,108 66,110 C65,107 64,103 64,100 
	C65,87 70,76 81,69 C82,68 84,65 85,70 Z"/>

<path transform="translate(-70, -20) scale(1.5)" fill="#EFCF98" opacity="0.7" stroke="none" style="filter: blur(0.1px);"
	d="M112,77 C111,81 111,85 110,90 C108,100 108,110 111,120 C111,121 111,123 111,125 
	C109,118 106,111 107,105 C107,95 110,86 112,77 Z"/>

<path transform="translate(-70, -20) scale(1.5)" fill="#EBC58F" opacity="0.65" stroke="none" style="filter: blur(0.1px);"
	d="M162,51 C161,53 161,55 160,57 C156,66 152,75 148,85 C149,72 155,62 162,51 Z"/>
</svg>
